<svg xmlns="http://www.w3.org/2000/svg" xmlns:xlink="http://www.w3.org/1999/xlink" viewBox="0,0,256,256" width="24px" height="24px" fill-rule="nonzero"><g fill="#ffffff" fill-rule="nonzero" stroke="none" stroke-width="1" stroke-linecap="butt" stroke-linejoin="miter" stroke-miterlimit="10" stroke-dasharray="" stroke-dashoffset="0" font-family="none" font-weight="none" font-size="none" text-anchor="none" style="mix-blend-mode: normal"><g transform="scale(10.66667,10.66667)"><path d="M19.355,10.036c-0.681,-3.441 -3.714,-6.036 -7.355,-6.036c-2.892,0 -5.397,1.639 -6.648,4.036c-3.009,0.324 -5.352,2.87 -5.352,5.964c0,3.314 2.686,6 6,6h13c2.761,0 5,-2.239 5,-5c0,-2.64 -2.052,-4.779 -4.645,-4.964zM12,18l-4.333,-4.333c-0.246,-0.246 -0.072,-0.667 0.276,-0.667h2.057v-3.5c0,-0.276 0.224,-0.5 0.5,-0.5h3c0.276,0 0.5,0.224 0.5,0.5v3.5h2.057c0.348,0 0.522,0.421 0.276,0.667z"></path></g></g></svg>